<?xml version="1.0" encoding="iso-8859-1"?>
<!-- Generator: Adobe Illustrator 19.0.0, SVG Export Plug-In . SVG Version: 6.00 Build 0)  -->
<svg version="1.1" id="Capa_1" xmlns="http://www.w3.org/2000/svg" xmlns:xlink="http://www.w3.org/1999/xlink" x="0px" y="0px"
	 viewBox="0 0 512.01 512.01" style="enable-background:new 0 0 512.01 512.01;" xml:space="preserve">
<path style="fill:#E9EFF4;" d="M372.381,182.01l22.736-130.768c1.584-9.12-4.528-17.792-13.648-19.376L199.389,0.25
	c-9.12-1.584-17.808,4.528-19.392,13.648l-22.72,130.752L372.381,182.01z"/>
<path style="fill:#65B1EF;" d="M388.285,90.554l6.832-39.328c1.584-9.12-4.528-17.792-13.648-19.376l-182.08-31.6
	c-9.12-1.584-17.808,4.528-19.392,13.648l-6.832,39.312L388.285,90.554z"/>
<polygon style="fill:#3E4347;" points="389.613,83.066 388.333,90.586 173.133,53.146 174.413,45.786 "/>
<g>
	<path style="fill:#FFFFFF;" d="M201.773,19.818l5.92,1.024c1.168,0.208,2.048,0.4,2.608,0.608c0.56,0.192,1.04,0.496,1.44,0.88
		c0.4,0.384,0.704,0.864,0.928,1.44c0.208,0.56,0.272,1.168,0.16,1.808c-0.128,0.688-0.416,1.296-0.896,1.808
		c-0.48,0.512-1.056,0.864-1.744,1.04c0.864,0.416,1.472,0.992,1.856,1.712c0.368,0.72,0.496,1.504,0.336,2.368
		c-0.112,0.672-0.384,1.296-0.816,1.888c-0.432,0.576-0.944,1.024-1.552,1.312c-0.608,0.288-1.312,0.4-2.128,0.352
		c-0.512-0.032-1.712-0.208-3.632-0.528l-5.04-0.88L201.773,19.818z M204.333,22.794l-0.592,3.44l1.968,0.336
		c1.168,0.208,1.888,0.304,2.176,0.32c0.528,0.032,0.96-0.08,1.296-0.32s0.56-0.608,0.64-1.088c0.08-0.464,0.016-0.848-0.192-1.184
		c-0.208-0.336-0.544-0.576-1.04-0.72c-0.288-0.08-1.136-0.256-2.544-0.496L204.333,22.794z M203.309,28.698l-0.688,3.968
		l2.768,0.48c1.072,0.192,1.776,0.272,2.064,0.272c0.464,0,0.864-0.144,1.184-0.4c0.336-0.256,0.544-0.656,0.64-1.184
		c0.08-0.448,0.032-0.848-0.128-1.184c-0.16-0.352-0.432-0.624-0.816-0.848c-0.384-0.208-1.264-0.432-2.624-0.672L203.309,28.698z"
		/>
	<path style="fill:#FFFFFF;" d="M214.813,29.802c0.816-4.736,3.872-7.312,8.512-6.512c4.16,0.72,6.752,3.872,5.872,8.944
		c-0.864,4.96-4.272,7.136-8.496,6.4C216.445,37.898,213.949,34.714,214.813,29.802z M217.901,30.25
		c-0.608,3.52,0.96,5.44,3.232,5.824c2.272,0.4,4.352-0.864,4.976-4.448c0.608-3.552-0.864-5.36-3.216-5.76
		C220.557,25.45,218.525,26.682,217.901,30.25z"/>
	<path style="fill:#FFFFFF;" d="M243.629,42.346l-3.248-0.56l-0.704-3.584l-5.92-1.024l-1.84,3.136l-3.168-0.544l8.352-13.824
		l3.168,0.544L243.629,42.346z M239.133,35.53l-1.088-5.856l-2.96,5.152L239.133,35.53z"/>
	<path style="fill:#FFFFFF;" d="M245.213,42.634l2.576-14.816l6.304,1.088c3.296,0.576,5.712,1.68,5.104,5.168
		c-0.368,2.16-1.888,3.52-4.624,3.44c1.424,1.2,1.92,2.352,2.672,4.224l1.312,3.2l-3.584-0.624l-1.6-3.6
		c-1.632-3.696-2.016-3.408-4.08-3.76l-1.072,6.192L245.213,42.634z M249.693,34.602l2.208,0.384
		c2.016,0.352,3.808,0.768,4.16-1.264c0.352-2.016-1.424-2.144-3.392-2.48l-2.336-0.4L249.693,34.602z"/>
	<path style="fill:#FFFFFF;" d="M262.733,30.394c5.504,0.96,10.4,0.784,11.232,6.128c0.624,3.984-1.072,9.216-5.472,9.824
		c-1.552,0.208-6.656-0.832-8.336-1.12L262.733,30.394z M265.293,33.434l-1.712,9.824c0.864,0.144,3.248,0.624,4.064,0.56
		c2.72-0.192,3.632-4.656,3.28-7.056C270.525,33.946,268.173,33.93,265.293,33.434z"/>
	<path style="fill:#FFFFFF;" d="M275.037,47.802l2.576-14.816l2.992,0.528l-2.576,14.816L275.037,47.802z"/>
	<path style="fill:#FFFFFF;" d="M280.909,48.826l2.576-14.832l2.912,0.512l4.352,10.96l1.728-9.904l2.784,0.48l-2.592,14.832
		l-3.008-0.528l-4.288-10.704l-1.68,9.664L280.909,48.826z"/>
	<path style="fill:#FFFFFF;" d="M303.677,47.162l0.432-2.496l6.448,1.12l-1.024,5.904c-1.392,0.944-4.16,1.648-6.736,1.2
		c-4.816-0.832-6.96-4.512-6.176-9.024c0.512-2.944,2.16-5.328,5.008-6.208c3.712-1.168,9.024,0.608,9.232,5.328l-3.072,0.048
		c-0.432-4.064-7.008-4.816-8.064,1.264c-0.64,3.68,0.912,5.6,3.328,6.016c1.28,0.224,2.704-0.112,3.728-0.656l0.32-1.888
		L303.677,47.162z"/>
	<path style="fill:#FFFFFF;" d="M317.693,55.21l2.576-14.816c1.28,0.224,7.168,1.136,8.32,1.68c1.616,0.736,2.656,2.464,2.24,4.864
		c-0.432,2.48-2.16,3.808-4.08,3.888c-1.424,0.032-3.68-0.416-5.088-0.672l-0.976,5.584L317.693,55.21z M322.829,43.418
		l-0.736,4.208c0.864,0.144,3.2,0.64,4.048,0.464c0.832-0.16,1.44-0.752,1.6-1.664c0.192-1.12-0.416-1.952-1.328-2.288
		C325.741,43.882,323.565,43.546,322.829,43.418z"/>
	<path style="fill:#FFFFFF;" d="M343.341,59.674l-3.264-0.56l-0.688-3.6l-5.92-1.024l-1.808,3.152l-3.168-0.544l8.352-13.824
		l3.168,0.544L343.341,59.674z M338.861,52.842l-1.088-5.856l-2.96,5.152L338.861,52.842z"/>
	<path style="fill:#FFFFFF;" d="M345.021,54.986l2.96,0.224c0.016,1.888,0.8,3.072,2.736,3.408c2.032,0.352,3.088-0.528,3.264-1.536
		c0.144-0.848-0.368-1.344-1.12-1.776c-1.632-0.896-4.224-1.632-5.408-3.12c-1.856-2.368-0.768-5.696,2.272-6.416
		c3.712-0.88,8.512,1.072,7.904,5.472l-3.008-0.384c0-0.784-0.176-1.376-0.544-1.792c-0.736-0.816-2.816-1.2-3.952-0.64
		c-0.656,0.32-0.864,1.168-0.32,1.808c0.544,0.64,4.576,2.288,5.616,3.104c1.296,1.008,1.888,2.416,1.552,4.256
		c-0.432,2.528-2.608,4.272-6.736,3.552C346.685,60.522,344.813,58.538,345.021,54.986z"/>
	<path style="fill:#FFFFFF;" d="M358.829,57.386l2.96,0.224c0.016,4.336,5.584,4.304,6.016,1.872
		c0.144-0.848-0.368-1.344-1.12-1.776c-1.632-0.896-4.224-1.632-5.408-3.12c-2.352-2.976-0.272-7.376,5.28-6.416
		c3.872,0.672,5.264,2.864,4.896,5.472l-3.024-0.384c0.016-1.6-0.704-2.336-2.352-2.624c-2.528-0.432-3.328,1.008-2.48,2
		c0.544,0.64,4.576,2.288,5.616,3.104c1.296,1.008,1.872,2.416,1.552,4.256C369.837,65.53,358.413,65.002,358.829,57.386z"/>
</g>
<g>
	
		<rect x="204.932" y="64.973" transform="matrix(-0.1713 0.9852 -0.9852 -0.1713 323.3574 -110.968)" style="fill:#ACB9C1;" width="6.832" height="31.071"/>
	
		<rect x="219.547" y="67.277" transform="matrix(-0.1713 0.9852 -0.9852 -0.1713 360.3447 -101.7446)" style="fill:#ACB9C1;" width="6.832" height="66.799"/>
</g>
<path style="fill:#E24B4B;" d="M408.077,140.522v350.816c0,11.408-9.248,20.656-20.656,20.656H124.605
	c-11.408,0-20.656-9.248-20.656-20.656V140.522c0-11.408,9.248-20.656,20.656-20.656h262.816
	C398.829,119.866,408.077,129.13,408.077,140.522z"/>
<path style="fill:#D03F3F;" d="M184.621,256.442c-0.048,0-0.112-0.016-0.16-0.016s-0.112,0.016-0.16,0.016
	c-29.68,0.032-57.232,9.024-80.352,24.224v21.2c11.04-8.752,23.376-15.952,36.896-20.784c-9.712,12.288-17.76,28.72-23.616,47.968
	c-4.64-1.344-9.008-2.88-13.296-4.496v17.872c2.976,1.008,5.792,2.176,8.912,3.072c-3.36,15.248-5.328,31.936-5.824,49.488h-3.072
	v16.976h3.104c0.512,17.536,2.48,34.208,5.84,49.44c-3.12,0.896-5.936,2.064-8.928,3.088v17.888c4.288-1.6,8.672-3.152,13.312-4.496
	c3.872,12.816,8.816,24.192,14.48,34.112h19.872c-7.056-9.984-13.152-22.992-17.808-38.144c13.328-2.72,27.536-4.384,42.144-4.848
	v42.992h16.976c0-18.48,0-43.008,0-43.008c14.592,0.464,28.816,2.112,42.144,4.848c-4.656,15.168-10.752,28.176-17.808,38.16h19.888
	c5.664-9.92,10.592-21.312,14.48-34.096c11.04,3.2,21.168,7.152,29.968,11.824c-7.584,8.544-16.32,15.984-25.872,22.288h27.856
	c29.424-26.912,47.936-65.568,47.936-108.496C331.533,322.458,265.645,256.522,184.621,256.442z M175.965,452.01
	c-16.176,0.48-31.792,2.288-46.432,5.328c-3.088-14.048-5.008-29.344-5.52-45.344h51.952V452.01z M175.965,395.018h-51.952
	c0.496-16.016,2.416-31.328,5.504-45.392c14.624,3.024,30.24,4.816,46.448,5.296V395.018z M175.965,337.93
	c-14.624-0.464-28.848-2.112-42.16-4.816c9.44-30.704,24.736-52.704,42.16-58.208C175.965,274.922,175.965,337.93,175.965,337.93z
	 M192.957,274.89c17.424,5.52,32.72,27.52,42.16,58.224c-13.328,2.72-27.536,4.352-42.16,4.816V274.89z M239.389,457.306
	c-14.64-3.04-30.272-4.848-46.448-5.312v-40h51.952C244.397,427.994,242.477,443.274,239.389,457.306z M192.957,395.018v-40.08
	c16.208-0.464,31.84-2.256,46.464-5.28c3.072,14.048,4.992,29.36,5.504,45.376h-51.968V395.018z M228.061,281.082
	c20.8,7.44,39.136,19.984,53.536,36.176c-8.752,4.672-18.864,8.608-29.92,11.808C245.821,309.818,237.773,293.37,228.061,281.082z
	 M292.269,476.234c-10.608-5.984-22.816-10.944-36.224-14.816c3.36-15.232,5.328-31.904,5.84-49.44h52.256
	C312.573,435.674,304.829,457.674,292.269,476.234z M314.125,395.018h-52.24c-0.496-17.536-2.464-34.224-5.824-49.472
	c13.424-3.872,25.616-8.832,36.176-14.816C304.813,349.29,312.573,371.322,314.125,395.018z"/>
<g>
	<path style="fill:#FFFFFF;" d="M175.213,228.202v-45.776c3.92,0,22.064-0.32,25.824,0.688c5.168,1.344,9.248,5.92,9.248,13.392
		c0,12.192-8.512,14.416-19.792,14.416h-6.032v17.264h-9.248V228.202z M184.461,190.186v12.992h5.056
		c5.824,0,11.248-0.448,11.248-6.528c0-3.456-2.272-5.632-5.184-6.144C193.389,190.09,186.701,190.186,184.461,190.186z"/>
	<path style="fill:#FFFFFF;" d="M254.397,228.202h-10.064l-4-10.4h-18.288l-3.776,10.4h-9.808l17.824-45.776h9.776L254.397,228.202z
		 M237.373,210.106l-6.304-16.976l-6.176,16.976H237.373z"/>
	<path style="fill:#FFFFFF;" d="M256.957,213.322l8.992-0.88c1.008,5.664,4.016,8.768,9.984,8.768c6.272,0,8.992-3.168,8.992-6.304
		c0-1.088-0.32-2-0.96-2.768c-0.64-0.752-1.744-1.424-3.328-1.984c-1.088-0.368-3.552-1.04-7.392-2
		c-4.96-1.232-8.432-2.736-10.432-4.528c-2.816-2.512-4.208-5.584-4.208-9.216c0-2.336,0.656-4.512,1.984-6.544
		c1.328-2.032,3.232-3.568,5.712-4.64c2.496-1.056,5.488-1.6,9.008-1.6c5.744,0,10.064,1.264,12.976,3.776
		c2.896,2.512,4.432,5.872,4.576,10.08l-9.248,0.4c-0.4-2.352-1.248-4.048-2.544-5.072c-1.296-1.024-3.248-1.552-5.856-1.552
		c-2.688,0-4.784,0.544-6.304,1.648c-0.976,0.704-1.472,1.648-1.472,2.848c0,1.088,0.464,2.016,1.376,2.784
		c1.168,0.976,4,2,8.496,3.056s7.824,2.16,9.968,3.296c2.16,1.136,3.84,2.688,5.056,4.656s1.824,4.4,1.824,7.296
		c0,7.664-5.488,14.144-18.32,14.144C264.845,229.018,258.221,224.09,256.957,213.322z"/>
	<path style="fill:#FFFFFF;" d="M299.597,213.322l8.992-0.88c0.544,3.024,1.648,5.232,3.296,6.656
		c1.648,1.424,3.888,2.128,6.704,2.128c2.976,0,5.216-0.624,6.72-1.888s2.272-2.736,2.272-4.416c0-1.088-0.32-2-0.944-2.768
		c-0.64-0.752-1.744-1.424-3.328-1.984c-1.088-0.368-3.552-1.04-7.392-2c-4.96-1.232-8.432-2.736-10.432-4.528
		c-2.816-2.512-4.208-5.584-4.208-9.216c0-2.336,0.656-4.512,1.984-6.544c1.328-2.032,3.232-3.568,5.712-4.64
		c2.48-1.056,5.488-1.6,9.008-1.6c5.744,0,10.064,1.264,12.976,3.776c2.896,2.512,4.432,5.872,4.576,10.08l-9.248,0.4
		c-0.4-2.352-1.248-4.048-2.544-5.072c-1.296-1.024-3.248-1.552-5.856-1.552c-2.688,0-4.784,0.544-6.304,1.648
		c-0.976,0.704-1.472,1.648-1.472,2.848c0,1.088,0.464,2.016,1.376,2.784c1.168,0.976,4,2,8.496,3.056s7.824,2.16,9.968,3.296
		c2.16,1.136,3.84,2.688,5.056,4.656s1.824,4.4,1.824,7.296c0,2.624-0.72,5.072-2.192,7.36c-1.456,2.288-3.52,3.984-6.176,5.104
		s-5.984,1.664-9.952,1.664c-5.792,0-10.224-1.328-13.328-4.016S300.205,218.442,299.597,213.322z"/>
</g>
<g>
</g>
<g>
</g>
<g>
</g>
<g>
</g>
<g>
</g>
<g>
</g>
<g>
</g>
<g>
</g>
<g>
</g>
<g>
</g>
<g>
</g>
<g>
</g>
<g>
</g>
<g>
</g>
<g>
</g>
</svg>
